<?xml version="1.0" standalone="no"?>
<!DOCTYPE svg PUBLIC "-//W3C//DTD SVG 20010904//EN"
 "http://www.w3.org/TR/2001/REC-SVG-20010904/DTD/svg10.dtd">
<svg version="1.0" xmlns="http://www.w3.org/2000/svg"
 width="1600.000000pt" height="1600.000000pt" viewBox="0 0 1600.000000 1600.000000"
 preserveAspectRatio="xMidYMid meet">

<g transform="translate(0.000000,1600.000000) scale(0.100000,-0.100000)"
fill="#000000" stroke="none">
<path d="M4355 11299 c-2002 -1859 -3652 -3392 -3667 -3407 l-27 -27 334 -360
c183 -198 337 -361 342 -362 5 -2 155 132 334 298 l324 302 3 -2872 2 -2871
2500 0 2500 0 0 2500 0 2500 1000 0 1000 0 0 -2500 0 -2500 2500 0 2500 0 2
2871 3 2872 324 -302 c178 -165 327 -301 331 -301 4 0 135 138 291 307 156
169 308 333 336 364 l53 57 -3666 3403 c-2016 1872 -3669 3405 -3672 3406 -4
1 -1645 -1519 -3647 -3378z m6153 -309 l2492 -2315 0 -2837 0 -2838 -1500 0
-1500 0 0 2500 0 2500 -2000 0 -2000 0 0 -2500 0 -2500 -1500 0 -1500 0 0
2838 0 2837 2493 2317 c1370 1274 2499 2316 2507 2315 9 -1 1137 -1044 2508
-2317z"/>
</g>
</svg>
