<?xml version="1.0" standalone="no"?>
<!DOCTYPE svg PUBLIC "-//W3C//DTD SVG 20010904//EN"
 "http://www.w3.org/TR/2001/REC-SVG-20010904/DTD/svg10.dtd">
<svg version="1.0" xmlns="http://www.w3.org/2000/svg"
 width="2000.000000pt" height="2000.000000pt" viewBox="0 0 2000.000000 2000.000000"
 preserveAspectRatio="xMidYMid meet">

<g transform="translate(0.000000,2000.000000) scale(0.100000,-0.100000)"
fill="#000000" stroke="none">
<path d="M16625 16386 c-150 -36 -263 -140 -328 -299 l-22 -52 -5 -1832 -5
-1832 -65 55 c-1026 879 -3604 2587 -5205 3449 -418 225 -778 389 -987 449
-393 113 -680 -23 -797 -378 -85 -256 -136 -698 -189 -1628 l-7 -127 -155 101
c-1185 773 -2282 1426 -2965 1763 -470 232 -688 307 -895 306 -168 0 -270 -41
-386 -156 -143 -141 -205 -339 -263 -835 -54 -466 -93 -1188 -123 -2275 -16
-597 -16 -2970 0 -3580 43 -1590 100 -2398 193 -2701 63 -206 209 -350 396
-389 212 -45 418 12 883 244 520 260 1278 714 2255 1351 190 124 874 583 1025
688 17 13 19 11 24 -20 2 -18 10 -163 16 -323 31 -809 87 -1357 160 -1577 59
-174 173 -293 337 -350 94 -32 261 -32 380 0 479 129 1649 804 3238 1867 1316
880 2445 1717 3043 2253 l92 83 0 -1748 c0 -1897 -3 -1798 53 -1913 29 -60
140 -171 200 -199 143 -69 305 -67 438 5 61 34 149 122 183 183 61 112 56
-255 56 4596 0 4857 5 4484 -57 4597 -33 61 -135 157 -197 187 -101 50 -216
63 -321 37z m-10745 -1364 c813 -442 2098 -1238 3086 -1912 130 -88 253 -169
273 -179 232 -119 519 -21 631 215 40 82 46 144 60 594 24 768 82 1580 112
1580 15 0 412 -201 604 -305 1430 -782 3634 -2229 4713 -3095 201 -161 471
-396 471 -410 0 -13 -239 -240 -380 -361 -1109 -950 -3595 -2654 -5075 -3476
-190 -106 -365 -196 -370 -191 -5 6 -35 451 -50 738 -18 366 -32 760 -40 1125
-4 154 -11 305 -16 335 -43 252 -308 427 -559 369 -77 -17 -146 -59 -415 -250
-1003 -713 -2197 -1490 -3045 -1981 -286 -166 -617 -344 -625 -336 -4 4 -32
383 -45 603 -87 1568 -94 4413 -15 6095 22 458 57 939 81 1107 l6 42 212 -106
c116 -58 290 -148 386 -201z"/>
</g>
</svg>
